# xmcd
#
# Track frame offsets:
#	150
#	16392
#	35400
#	51792
#	64870
#	80885
#	98140
#	116372
#	133777
#	149055
#	167412
#	187590
#	204861
#
# Disc length: 2959 seconds
#
# Revision: 0
# Processed by: cddbd v1.5.1PL0 Copyright (c) Steve Scherf et al.
# Submitted via: dBpowerAMP V4.0
#
DISCID=ad0b8d0d
DTITLE=KT Tunstall - Eye To The Telescope
DYEAR=1900
DGENRE=
TTITLE0=Other Side Of The World
TTITLE1=Another Place To Fall
TTITLE2=Under The Weather
TTITLE3=Black Horse And The Cherry Tree
TTITLE4=Miniature Disasters
TTITLE5=Silent Sea
TTITLE6=Universe And U
TTITLE7=False Alarm
TTITLE8=Suddenly I See
TTITLE9=Stoppin The Love
TTITLE10=Heal Over
TTITLE11=Through The Dark
TTITLE12=Through The Dark
EXTD=
EXTT0=
EXTT1=
EXTT2=
EXTT3=
EXTT4=
EXTT5=
EXTT6=
EXTT7=
EXTT8=
EXTT9=
EXTT10=
EXTT11=
EXTT12=
PLAYORDER=
